# xmcd
#
# Track frame offsets:
#	150
#	17657
#	39787
#	62815
#	81952
#	107755
#	130034
#	149376
#	168749
#	188810
#	208351
#
# Disc length: 3049 seconds
# Revision: 0
# Processed by: cddbd v1.5.2PL0 Copyright (c) Steve Scherf et al.
# Submitted via: dBpowerAMP V12.0
#
DISCID=9a0be70b
DTITLE=Jalan Crossland - No Cause For Despair
DYEAR=2014
DGENRE=Americana
TTITLE0=Satellite
TTITLE1=Tattoo
TTITLE2=FCC - Hard Luck, Bad Blood, Bullshit and Beer
TTITLE3=Cluck
TTITLE4=Skippin' Stones
TTITLE5=Zero G
TTITLE6=Doin' It
TTITLE7=Cowgirl
TTITLE8=El Norte
TTITLE9=Undertaker
TTITLE10=Good Clean Livin'
EXTD=
EXTT0=
EXTT1=
EXTT2=
EXTT3=
EXTT4=
EXTT5=
EXTT6=
EXTT7=
EXTT8=
EXTT9=
EXTT10=
PLAYORDER=
